<svg width="21" height="18" viewBox="0 0 21 18" fill="none" xmlns="http://www.w3.org/2000/svg">
<path fill-rule="evenodd" clip-rule="evenodd" d="M20 10H1V8H20C20.5523 8 21 8.44772 21 9C21 9.55229 20.5523 10 20 10Z" fill="white"/>
<path fill-rule="evenodd" clip-rule="evenodd" d="M0.301371 8.26999C0.703199 7.86686 1.35469 7.86686 1.75652 8.26999L9.69863 16.2378C10.1005 16.6409 10.1005 17.2945 9.69863 17.6977C9.2968 18.1008 8.64531 18.1008 8.24348 17.6977L0.301371 9.72985C-0.100457 9.32672 -0.100457 8.67312 0.301371 8.26999Z" fill="white"/>
<path fill-rule="evenodd" clip-rule="evenodd" d="M9.6973 0.302346C9.29548 -0.100782 8.64398 -0.100782 8.24216 0.302346L0.301371 8.26999C-0.100457 8.67312 -0.100457 9.32672 0.301371 9.72985C0.703199 10.133 1.35337 10.1331 1.7552 9.73001L9.6973 1.7622C10.0991 1.35907 10.0991 0.705474 9.6973 0.302346Z" fill="white"/>
</svg>
