<svg width="21" height="18" viewBox="0 0 21 18" fill="none" xmlns="http://www.w3.org/2000/svg">
<path fill-rule="evenodd" clip-rule="evenodd" d="M1 10H20V8H1C0.447716 8 0 8.44772 0 9C0 9.55229 0.447716 10 1 10Z" fill="white"/>
<path fill-rule="evenodd" clip-rule="evenodd" d="M20.6986 8.26999C20.2968 7.86686 19.6453 7.86686 19.2435 8.26999L11.3014 16.2378C10.8995 16.6409 10.8995 17.2945 11.3014 17.6977C11.7032 18.1008 12.3547 18.1008 12.7565 17.6977L20.6986 9.72985C21.1005 9.32672 21.1005 8.67312 20.6986 8.26999Z" fill="white"/>
<path fill-rule="evenodd" clip-rule="evenodd" d="M11.3027 0.302346C11.7045 -0.100782 12.356 -0.100782 12.7578 0.302346L20.6986 8.26999C21.1005 8.67312 21.1005 9.32672 20.6986 9.72985C20.2968 10.133 19.6466 10.1331 19.2448 9.73001L11.3027 1.7622C10.9009 1.35907 10.9009 0.705474 11.3027 0.302346Z" fill="white"/>
</svg>
